# xmcd
#
# Track frame offsets:
#	150
#	17568
#	33948
#	47413
#	65235
#	81466
#	101698
#	115716
#	129951
#	145430
#	161967
#	176241
#	192562
#	205188
#	221755
#	241951
#	257687
#	273942
#	290953
#
# Disc length: 4044 seconds
# Revision: 0
# Processed by: cddbd v1.5.2PL0 Copyright (c) Steve Scherf et al.
# Submitted via: dBpowerAMP V12.0
#
DISCID=2a0fca13
DTITLE=Various Artist - Country Radio November 2010
DYEAR=2010
DGENRE=Country
TTITLE0=Deric Ruttan - That's How I Wanna Go Out
TTITLE1=Keith Urban - Put You In Song
TTITLE2=Johnny Reid - Let's Go Higher
TTITLE3=Tim McGraw - Felt Good On My Lips
TTITLE4=Chris Cummings - Leaving Is Not An Option
TTITLE5=Lady Atebellum - Hello World
TTITLE6=Blake Shelton - Who Are You When I'm Not Looking
TTITLE7=Jason Blaine - Hillbilly Girl
TTITLE8=Jerrod Niemann - What Do You Want
TTITLE9=Greg Hanna - What Kind Of Love Are You On
TTITLE10=Jo Hikk Band - The Big Spoon
TTITLE11=Craig Campbell - Family Man
TTITLE12=Hey Romeo - Snap My Fingers
TTITLE13=Toby Keith - Bullets In The Gun
TTITLE14=Jamey Johnson - Playing The Part
TTITLE15=Ladies Of The Canyon - Maybe Baby
TTITLE16=Melissa Rae Barrie - Passenger Window
TTITLE17=Billy Currington - Let Me Down Easy
TTITLE18=Jason Greeley - Louder Than Words
EXTD=
EXTT0=
EXTT1=
EXTT2=
EXTT3=
EXTT4=
EXTT5=
EXTT6=
EXTT7=
EXTT8=
EXTT9=
EXTT10=
EXTT11=
EXTT12=
EXTT13=
EXTT14=
EXTT15=
EXTT16=
EXTT17=
EXTT18=
PLAYORDER=
